<?xml version="1.0" encoding="UTF-8"?>
<svg width="24px" height="24px" viewBox="0 0 24 24" version="1.1" xmlns="http://www.w3.org/2000/svg" xmlns:xlink="http://www.w3.org/1999/xlink">
    <title>icon/faceid</title>
    <g id="icon/faceid" stroke="none" stroke-width="1" fill="none" fill-rule="evenodd">
        <g id="Face_ID_logo" transform="translate(0.000000, 0.000000)" fill="#000000" fill-rule="nonzero">
            <g id="Corners">
                <g id="Corner">
                    <path d="M1.23428573,6.58285721 L1.23428573,3.90857147 C1.23428573,2.39798148 2.39798148,1.23428573 3.90857147,1.23428573 L6.58285721,1.23428573 C6.92369583,1.23428573 7.20000009,0.957981459 7.20000009,0.617142866 C7.20000009,0.276304272 6.92369583,0 6.58285721,0 L3.90857147,0 C1.71630429,0 0,1.71630429 0,3.90857147 L0,6.58285721 C0,6.92369583 0.276304272,7.20000009 0.617142866,7.20000009 C0.957981459,7.20000009 1.23428573,6.92369583 1.23428573,6.58285721 Z" id="Path"></path>
                </g>
                <g id="Corner" transform="translate(20.400000, 3.600000) scale(-1, 1) translate(-20.400000, -3.600000) translate(16.800000, 0.000000)">
                    <path d="M1.23428573,6.58285721 L1.23428573,3.90857147 C1.23428573,2.39798148 2.39798148,1.23428573 3.90857147,1.23428573 L6.58285721,1.23428573 C6.92369583,1.23428573 7.20000009,0.957981459 7.20000009,0.617142866 C7.20000009,0.276304272 6.92369583,0 6.58285721,0 L3.90857147,0 C1.71630429,0 0,1.71630429 0,3.90857147 L0,6.58285721 C0,6.92369583 0.276304272,7.20000009 0.617142866,7.20000009 C0.957981459,7.20000009 1.23428573,6.92369583 1.23428573,6.58285721 Z" id="Path"></path>
                </g>
                <g id="Corner" transform="translate(3.600000, 20.400000) scale(-1, 1) rotate(-180.000000) translate(-3.600000, -20.400000) translate(0.000000, 16.800000)">
                    <path d="M1.23428573,6.58285721 L1.23428573,3.90857147 C1.23428573,2.39798148 2.39798148,1.23428573 3.90857147,1.23428573 L6.58285721,1.23428573 C6.92369583,1.23428573 7.20000009,0.957981459 7.20000009,0.617142866 C7.20000009,0.276304272 6.92369583,0 6.58285721,0 L3.90857147,0 C1.71630429,0 0,1.71630429 0,3.90857147 L0,6.58285721 C0,6.92369583 0.276304272,7.20000009 0.617142866,7.20000009 C0.957981459,7.20000009 1.23428573,6.92369583 1.23428573,6.58285721 Z" id="Path"></path>
                </g>
                <g id="Corner" transform="translate(20.400000, 20.400000) rotate(180.000000) translate(-20.400000, -20.400000) translate(16.800000, 16.800000)">
                    <path d="M1.23428573,6.58285721 L1.23428573,3.90857147 C1.23428573,2.39798148 2.39798148,1.23428573 3.90857147,1.23428573 L6.58285721,1.23428573 C6.92369583,1.23428573 7.20000009,0.957981459 7.20000009,0.617142866 C7.20000009,0.276304272 6.92369583,0 6.58285721,0 L3.90857147,0 C1.71630429,0 0,1.71630429 0,3.90857147 L0,6.58285721 C0,6.92369583 0.276304272,7.20000009 0.617142866,7.20000009 C0.957981459,7.20000009 1.23428573,6.92369583 1.23428573,6.58285721 Z" id="Path"></path>
                </g>
            </g>
            <g id="Eye" transform="translate(6.526316, 8.421053)">
                <path d="M0,0.64285715 L0,2.35811299 C0,2.71315319 0.268629153,3.00097015 0.600000007,3.00097015 C0.931370862,3.00097015 1.20000001,2.71315319 1.20000001,2.35811299 L1.20000001,0.64285715 C1.20000001,0.28781695 0.931370862,0 0.600000007,0 C0.268629153,0 0,0.28781695 0,0.64285715 Z" id="Path"></path>
            </g>
            <g id="Eye" transform="translate(16.421053, 8.421053)">
                <path d="M0,0.64285715 L0,2.35811299 C0,2.71315319 0.268629153,3.00097015 0.600000008,3.00097015 C0.931370862,3.00097015 1.20000002,2.71315319 1.20000002,2.35811299 L1.20000002,0.64285715 C1.20000002,0.28781695 0.931370862,0 0.600000008,0 C0.268629153,0 0,0.28781695 0,0.64285715 Z" id="Path"></path>
            </g>
            <path d="M7.77958858,17.7248772 C8.94993344,18.8171991 10.3673619,19.3684213 12.0000001,19.3684213 C13.6326384,19.3684213 15.0500669,18.8171991 16.2204117,17.7248772 C16.4754121,17.4868768 16.4891934,17.0872207 16.251193,16.8322203 C16.0131926,16.5772198 15.6135365,16.5634386 15.358536,16.801439 C14.4236177,17.6740294 13.3147304,18.1052634 12.0000001,18.1052634 C10.6852699,18.1052634 9.57638259,17.6740294 8.64146426,16.801439 C8.38646383,16.5634386 7.9868077,16.5772198 7.74880729,16.8322203 C7.5108069,17.0872207 7.52458815,17.4868768 7.77958858,17.7248772 Z" id="Mouth"></path>
            <path d="M12.0000001,9.05263169 L12.0000001,13.4736844 C12.0000001,13.7566112 11.8617127,13.894737 11.5773815,13.894737 L11.1578949,13.894737 C10.8090834,13.894737 10.5263159,14.1775045 10.5263159,14.526316 C10.5263159,14.8751274 10.8090834,15.1578949 11.1578949,15.1578949 L11.5773815,15.1578949 C12.5590053,15.1578949 13.2631581,14.4545648 13.2631581,13.4736844 L13.2631581,9.05263169 C13.2631581,8.70382028 12.9803905,8.42105273 12.6315791,8.42105273 C12.2827677,8.42105273 12.0000001,8.70382028 12.0000001,9.05263169 Z" id="Nose"></path>
        </g>
    </g>
</svg>