<?xml version="1.0" encoding="UTF-8"?>
<svg width="24px" height="24px" viewBox="0 0 24 24" version="1.1" xmlns="http://www.w3.org/2000/svg" xmlns:xlink="http://www.w3.org/1999/xlink">
    <title>icon/scan</title>
    <g id="icon/scan" stroke="none" stroke-width="1" fill="none" fill-rule="evenodd" stroke-linecap="round" stroke-linejoin="round">
        <g id="grid" transform="translate(3.000000, 3.000000)" stroke="#000000" stroke-width="2">
            <polyline id="Rectangle-Copy" transform="translate(3.000000, 15.000000) scale(-1, 1) translate(-3.000000, -15.000000) " points="6 12 6 18 8.1680694e-16 18"></polyline>
            <line x1="13" y1="9" x2="6" y2="9" id="Rectangle-Copy-5" transform="translate(9.500000, 9.000000) scale(-1, 1) translate(-9.500000, -9.000000) "></line>
            <polyline id="Rectangle-Copy-3" transform="translate(3.000000, 3.000000) scale(-1, -1) translate(-3.000000, -3.000000) " points="6 -3.33780622e-14 6 6 8.1680694e-16 6"></polyline>
            <polyline id="Rectangle-Copy-2" points="18 12 18 18 12 18"></polyline>
            <polyline id="Rectangle-Copy-4" transform="translate(15.000000, 3.000000) scale(1, -1) translate(-15.000000, -3.000000) " points="18 -3.33780622e-14 18 6 12 6"></polyline>
        </g>
    </g>
</svg>